<svg xmlns="http://www.w3.org/2000/svg" viewBox="0 0 17.83 17.83"><defs><style>.cls-1{fill:#f06449;}</style></defs><title>Recurso 1</title><g id="Capa_2" data-name="Capa 2"><g id="Capa_2-2" data-name="Capa 2"><path class="cls-1" d="M8.92,0a8.92,8.92,0,1,0,8.91,8.92A8.92,8.92,0,0,0,8.92,0Zm.39,14.22H7.55v-.15a.28.28,0,0,0,.22-.1.61.61,0,0,0,.13-.22A2.29,2.29,0,0,0,8,13.47c0-.1,0-.18,0-.25V13L8.26,13a3.79,3.79,0,0,0,.61-.23v.49c0,.07,0,.15,0,.25a1.28,1.28,0,0,0,.07.28.61.61,0,0,0,.13.22.27.27,0,0,0,.22.1Zm1-3.76a2.2,2.2,0,0,1-.45.92,3,3,0,0,1-.79.67,3.91,3.91,0,0,1-1,.42,2.86,2.86,0,0,1-1.25.1,3.4,3.4,0,0,1-1-.33,2.84,2.84,0,0,1-.76-.6,1.88,1.88,0,0,1-.33-.52.63.63,0,0,1-.09-.33.69.69,0,0,1,1.38,0,1.93,1.93,0,0,1,0,.5.7.7,0,0,0,.13.5,2,2,0,0,0,.37.35,1.79,1.79,0,0,0,1.61.19A2.69,2.69,0,0,0,8.85,12a1.82,1.82,0,0,0,.85-1.27,2,2,0,0,0-.07-.87A1.44,1.44,0,0,0,9,9a3.61,3.61,0,0,0-1-.46,10.92,10.92,0,0,0-1.25-.29,8.28,8.28,0,0,1-1.26-.3,3.54,3.54,0,0,1-1-.54,1.78,1.78,0,0,1-.64-1,2.12,2.12,0,0,1-.05-.83,2,2,0,0,1,.29-.77,2.3,2.3,0,0,1,.61-.64,2.84,2.84,0,0,1,.91-.43,2.89,2.89,0,0,1,1-.12,2.11,2.11,0,0,1,.73.16h0c1,.34,1.17.85,1.17.85h0a.69.69,0,0,1-.64,1A.71.71,0,0,1,7.13,5h0a1.14,1.14,0,0,1,0-.41.82.82,0,0,0-.2-.52,1.12,1.12,0,0,0-.22-.16,1.14,1.14,0,0,0-.51-.13,2.36,2.36,0,0,0-.56.08,1.66,1.66,0,0,0-1,.69,1.52,1.52,0,0,0-.12,1.31,1.4,1.4,0,0,0,.59.84,3.9,3.9,0,0,0,1,.47,11.28,11.28,0,0,0,1.24.27,9.14,9.14,0,0,1,1.25.31,3.67,3.67,0,0,1,1.06.55,1.87,1.87,0,0,1,.63,1A2.08,2.08,0,0,1,10.33,10.46ZM8,11.73V9.19a.1.1,0,0,1,.14-.1,3.29,3.29,0,0,1,.7.36.12.12,0,0,1,0,.08V11.2a.27.27,0,0,1-.09.21,1.56,1.56,0,0,1-.2.16,2,2,0,0,1-.49.23A.07.07,0,0,1,8,11.73Zm6.1,2.49H12.33v-.15a.27.27,0,0,0,.22-.1.61.61,0,0,0,.13-.22,2.29,2.29,0,0,0,.07-.28c0-.1,0-.18,0-.25V8.35a7.76,7.76,0,0,0-.09-1.24,2.85,2.85,0,0,0-.29-.92,1.39,1.39,0,0,0-.57-.58,1.79,1.79,0,0,0-.88-.2,1.81,1.81,0,0,0-.61.1,2.87,2.87,0,0,0-.57.24,3.3,3.3,0,0,0-.49.34,1.1,1.1,0,0,0-.4.86v.38l-.11,0L8.2,7.13A.27.27,0,0,1,8,6.86V6.64a2.5,2.5,0,0,0,0-.25,2.33,2.33,0,0,0-.07-.25.5.5,0,0,0-.13-.21h0l.13,0a.78.78,0,0,0,.26,0,.89.89,0,0,0,.58-.45.77.77,0,0,0,.08-.19h.06v.66A.14.14,0,0,0,9.1,6a4.29,4.29,0,0,1,.77-.51,2,2,0,0,1,1-.25A2.69,2.69,0,0,1,13,6a2.7,2.7,0,0,1,.68,1.91v5.31c0,.07,0,.15,0,.25a2.29,2.29,0,0,0,.07.28.61.61,0,0,0,.13.22.27.27,0,0,0,.22.1Z"/></g></g></svg>