<svg xmlns="http://www.w3.org/2000/svg" viewBox="0 0 15.87 16.25"><defs><style>.cls-1{fill:#a53860;}</style></defs><title>Recurso 2</title><g id="Capa_2" data-name="Capa 2"><g id="Capa_2-2" data-name="Capa 2"><path class="cls-1" d="M8,15.53a1.93,1.93,0,0,1-.1-.43,1.89,1.89,0,0,1,0-.38V14a5.81,5.81,0,0,1-.93.34l-.42.1v.3a2.87,2.87,0,0,1,0,.38,2.71,2.71,0,0,1-.1.43,1,1,0,0,1-.21.35.41.41,0,0,1-.33.15v.22h2.7V16a.43.43,0,0,1-.34-.15A.87.87,0,0,1,8,15.53Z"/><path class="cls-1" d="M7.42,12.19A1.5,1.5,0,0,0,7.73,12a.42.42,0,0,0,.13-.32V9.07A.14.14,0,0,0,7.8,9a4.32,4.32,0,0,0-1.07-.56.17.17,0,0,0-.22.16v3.89a.12.12,0,0,0,.16.11A3.24,3.24,0,0,0,7.42,12.19Z"/><path class="cls-1" d="M15.54,15.88a.89.89,0,0,1-.21-.35,2.71,2.71,0,0,1-.1-.43,2.87,2.87,0,0,1,0-.38V6.58a4.13,4.13,0,0,0-1-2.93,4.15,4.15,0,0,0-3.3-1.12,3.23,3.23,0,0,0-1.45.38,7.57,7.57,0,0,0-1.18.79.22.22,0,0,1-.36-.17v-1H7.78a1.3,1.3,0,0,1-.13.3,1.45,1.45,0,0,1-.88.69,1.48,1.48,0,0,1-.41.05l-.2,0h0a.85.85,0,0,1,.21.31,2.6,2.6,0,0,1,.1.4,2.53,2.53,0,0,1,0,.38V5a.43.43,0,0,0,.33.41l.86.25.16.06V5.11a1.73,1.73,0,0,1,.62-1.32,4.78,4.78,0,0,1,.75-.52,4.84,4.84,0,0,1,.87-.37A3,3,0,0,1,11,2.75a2.86,2.86,0,0,1,1.37.3,2.23,2.23,0,0,1,.86.89,4.56,4.56,0,0,1,.45,1.42,12,12,0,0,1,.14,1.89v7.47a1.89,1.89,0,0,1,0,.38,1.93,1.93,0,0,1-.1.43.87.87,0,0,1-.2.35.43.43,0,0,1-.34.15v.22h2.7V16A.43.43,0,0,1,15.54,15.88Z"/><path class="cls-1" d="M9.07,7.22a5.38,5.38,0,0,0-1.61-.85A12.83,12.83,0,0,0,5.54,5.9a14.73,14.73,0,0,1-1.9-.43,5.46,5.46,0,0,1-1.58-.71,2.17,2.17,0,0,1-.91-1.28,2.33,2.33,0,0,1,.18-2A2.62,2.62,0,0,1,2.87.41,3,3,0,0,1,3.73.28a1.52,1.52,0,0,1,.78.21,1.51,1.51,0,0,1,.34.24,1.25,1.25,0,0,1,.3.79,1.74,1.74,0,0,0,0,.64h0a1.06,1.06,0,0,0,2.1-.23,1,1,0,0,0-.08-.39h0S7,.76,5.43.24h0A3.6,3.6,0,0,0,4.31,0a4.46,4.46,0,0,0-1.5.18,4.32,4.32,0,0,0-1.4.66,3.78,3.78,0,0,0-.94,1A3,3,0,0,0,0,3,3.16,3.16,0,0,0,.11,4.28a2.74,2.74,0,0,0,1,1.5,5.34,5.34,0,0,0,1.61.83,14,14,0,0,0,1.93.47,17,17,0,0,1,1.92.43,5.68,5.68,0,0,1,1.57.72A2.2,2.2,0,0,1,9,9.55a3.31,3.31,0,0,1,.11,1.34A2.83,2.83,0,0,1,8.71,12a2.91,2.91,0,0,1-.87.84,4.52,4.52,0,0,1-1.18.53,2.78,2.78,0,0,1-2.48-.31,3.12,3.12,0,0,1-.56-.53,1.06,1.06,0,0,1-.21-.76A2.91,2.91,0,0,0,3.5,11a1.06,1.06,0,1,0-2,.5,3.24,3.24,0,0,0,.52.81,4.16,4.16,0,0,0,1.17.91,4.85,4.85,0,0,0,1.6.51,4.57,4.57,0,0,0,1.92-.15,6,6,0,0,0,1.48-.64,4.94,4.94,0,0,0,1.22-1,3.58,3.58,0,0,0,.69-1.41,3.42,3.42,0,0,0-.06-1.73A2.83,2.83,0,0,0,9.07,7.22Z"/></g></g></svg>