<svg xmlns="http://www.w3.org/2000/svg" xmlns:xlink="http://www.w3.org/1999/xlink" viewBox="0 0 76.91 121.66"><defs><style>.cls-1{fill:#bca38a;}.cls-2{fill:#f7931e;}.cls-3{fill:#c1272d;}.cls-4{fill:#281205;}.cls-5{clip-path:url(#clip-path);}.cls-6{fill:#a67c52;}.cls-12,.cls-7{fill:#fff;}.cls-8{fill:#b76642;}.cls-9{clip-path:url(#clip-path-2);}.cls-10{fill:#603e16;}.cls-11{stroke:#603e16;stroke-miterlimit:10;stroke-width:0.25px;}.cls-12{opacity:0.4;}.cls-13{fill:#966f2f;}.cls-14{fill:#140a04;}.cls-15{fill:#4c3218;}.cls-16{fill:#5b1117;}</style><clipPath id="clip-path"><path class="cls-1" d="M34.18,70a8.35,8.35,0,0,0,.3,3.56,6.48,6.48,0,0,0,2.58,2.69A29.16,29.16,0,0,0,50.13,81a45.65,45.65,0,0,1-4.39-24.55q-3.32-.66-6.58-1.51c-1.95-.52-4.41-1.81-6.4-1.9-2.41-.1-1.29,2.41-.79,3.68A32.55,32.55,0,0,1,33.71,63,32.14,32.14,0,0,1,34.18,70Z"/></clipPath><clipPath id="clip-path-2"><path class="cls-1" d="M25.72,72.63c2.7-2.41,7-3.27,10-1.33,2.68,1.7,3.85,5,4.26,8.17s.24,6.39,1.1,9.44c.25.9-8,.77-8.68.65a18.26,18.26,0,0,1-8-3.53c-1.87-1.45-3.35-3-3-5.52A13.94,13.94,0,0,1,25.72,72.63Z"/></clipPath></defs><title>Recurso 10Autora</title><g id="Capa_2" data-name="Capa 2"><g id="Capa_4" data-name="Capa 4"><path class="cls-2" d="M70.29,54.82c.56-1.16,1.25-2.31,2-3.53a42,42,0,0,0,2.88-5.47A23.41,23.41,0,0,0,72.76,23.6a20.81,20.81,0,0,0-1.3-1.68l-.41-.57a25,25,0,0,0-4.65-4.48q-.72-.77-1.5-1.5a25.06,25.06,0,0,0-8.47-8.8A19.82,19.82,0,0,0,52.82,4.4,24,24,0,0,0,44.28,2h-.22c-.26,0-.52-.05-.79-.06a46,46,0,0,0-4.72-.45,7.17,7.17,0,0,0-1.77-.23h-.27a8.51,8.51,0,0,0-1.45.17q-.64,0-1.23.06a4,4,0,0,0-.71-.31,5.71,5.71,0,0,0-1.86-.3,8.33,8.33,0,0,0-1.56.16,9,9,0,0,0-3.34,1.38,3.63,3.63,0,0,0-.56-.55A7.22,7.22,0,0,0,23.49.61,13.07,13.07,0,0,0,19.75,0h-.28a15.15,15.15,0,0,0-6.62,1.57A17.37,17.37,0,0,0,7.61,5.52,23.54,23.54,0,0,0,3.43,31.74l.09.18c-.38.76-.72,1.46-1,2.15A26.08,26.08,0,0,0,.5,40a15.7,15.7,0,0,0-.24,4.83,12.45,12.45,0,0,0,.2,5.92,20,20,0,0,0,4.19,7L5,58a19.87,19.87,0,0,1,2.5,3.55c-.08.21-.17.43-.28.67-.3.72-.68,1.45-1.08,2.23A32.09,32.09,0,0,0,4.6,67.64a14,14,0,0,0-1,3.64,9.16,9.16,0,0,0,.54,4.47,13.16,13.16,0,0,0,3.29,4.67h0a10,10,0,0,0,.68,1.25,4.16,4.16,0,0,0-.88.42,4.12,4.12,0,0,0-1.62,4A5.56,5.56,0,0,0,6,87.28l-1.61.83c-.75.37-1.26.6-1.47.67l.26,0L.69,90a1,1,0,0,0-.51,1.18,9.43,9.43,0,0,0,.93,2h0l.07.09a15.08,15.08,0,0,0,1.07,1.54h0a25.55,25.55,0,0,0,3.38,4,14.79,14.79,0,0,0,5,3.15l4.12,3.68A25.85,25.85,0,0,0,25,111.12,33.31,33.31,0,0,0,60,119.92,9.53,9.53,0,0,0,64.56,117a10.33,10.33,0,0,0,1.8-4.19c.78-3.13,1.74-7,.82-10.9a22,22,0,0,0-3.43-7c-.82-1.22-1.64-2.43-2.45-3.59a18,18,0,0,0,4.2-2.77,5.09,5.09,0,0,0,3.84,1.87h.35a4.26,4.26,0,0,0,1.91-.58,4.31,4.31,0,0,0,2.16-4.5l-5.59.9a1.6,1.6,0,0,1,.06-.72c.16-.22.3-.44.44-.67a1.26,1.26,0,0,1,.74-.24.89.89,0,0,1,.69.25,3.06,3.06,0,0,1,.33-2.32,18.31,18.31,0,0,1,1.16-2.13c.39-.66.8-1.35,1.17-2.1a12,12,0,0,0,1.11-3.16A9.4,9.4,0,0,0,74,73.73l0-.46,0-.41a8.75,8.75,0,0,0-.18-1.46,17.3,17.3,0,0,0-2.37-5.57l-.37-.62a21.46,21.46,0,0,1-1.75-3.33A6.15,6.15,0,0,1,69,58.63,13.34,13.34,0,0,1,70.29,54.82Z"/><path class="cls-3" d="M38.41,77c4,.76,8.05,1.59,11.23,4a25.89,25.89,0,0,1,5,5.79c2.25,3.18,4.51,6.36,6.67,9.61a19.31,19.31,0,0,1,3,6.09c.75,3.14,0,6.42-.8,9.56a7.72,7.72,0,0,1-1.27,3.1,6.92,6.92,0,0,1-3.31,2,30.41,30.41,0,0,1-34.45-11.06L38.41,77"/><path class="cls-4" d="M7.67,31.85C6.17,35.94,5.06,40.38,6,44.64,7.44,51,13.31,56.2,13,62.73c-.14,2.85-1.48,5.47-2.48,8.14s-1.67,5.71-.48,8.3A17.57,17.57,0,0,0,12,82.09a6.92,6.92,0,0,1,1.44,3.15,3,3,0,0,1-1.38,3A1.92,1.92,0,0,1,9.29,87a13,13,0,0,0,12.39,3.6c4.43-1.13,8-4.62,10.08-8.7S34.62,73.21,35,68.65a46.38,46.38,0,0,0-.6-13.87c-.93-4.19-2.69-8.13-4.21-12.13C27.81,36.38,26,29.9,23.34,23.75c-1.07-2.48-2.54-7-4.74-8.71s-5,4.48-5.91,6.11A68.16,68.16,0,0,0,7.67,31.85Z"/><path class="cls-4" d="M69.58,42.5c-1.3,5.41-4.31,10.51-4.15,16.06.12,4.15,2,8,2.51,12.17a18.7,18.7,0,0,1-8.89,17.94c-2,1.16-4.41,1.94-6.55,1.11a9.7,9.7,0,0,1-3.25-2.53c-3.79-3.94-7.63-8-9.83-13a29.83,29.83,0,0,1-1.67-17.11,57,57,0,0,1,6-16.31C47.12,34.26,51.3,28,57,23.32A33.73,33.73,0,0,0,59.77,21c.75-.76,1.24-2.1,2-2.73C63.32,17,65.28,20.71,66.1,22a27.48,27.48,0,0,1,4.13,13A25.52,25.52,0,0,1,69.58,42.5Z"/><path class="cls-1" d="M34.18,70a8.35,8.35,0,0,0,.3,3.56,6.48,6.48,0,0,0,2.58,2.69A29.16,29.16,0,0,0,50.13,81a45.65,45.65,0,0,1-4.39-24.55q-3.32-.66-6.58-1.51c-1.95-.52-4.41-1.81-6.4-1.9-2.41-.1-1.29,2.41-.79,3.68A32.55,32.55,0,0,1,33.71,63,32.14,32.14,0,0,1,34.18,70Z"/><g class="cls-5"><path class="cls-6" d="M44.22,62.85c1.39.28,3,.47,4.07-.47a3.44,3.44,0,0,0,.34-4.21,7.57,7.57,0,0,0-3.47-2.76A24.93,24.93,0,0,0,33.72,53a5.42,5.42,0,0,0-2.58.54c-3.91,2.16,1.94,5.34,3.77,6.28A35.25,35.25,0,0,0,44.22,62.85Z"/></g><path class="cls-1" d="M68.59,38.44c-.91-1.44-2.23-2.65-2.8-4.26-.78-2.18,0-4.59-.11-6.91,0-.26-.06-.52-.09-.78a7.22,7.22,0,0,0-.7-3.82A20.74,20.74,0,0,0,44.71,10.11c-1.21.06-4.4.14-5.81,1.18a20.28,20.28,0,0,0-10.54,4.5,20.81,20.81,0,0,0-6.47,21.12,5.53,5.53,0,0,0-7.67-.38,5.87,5.87,0,0,0-.44,7.76,6.26,6.26,0,0,0,7.77,1.29c1.77,4.57,5.87,8,10.41,9.79s9.51,2.31,14.4,2.45a38.87,38.87,0,0,0,12-1.12,17,17,0,0,0,9.74-6.77C70.31,46.52,70.73,41.87,68.59,38.44Z"/><path class="cls-6" d="M13.49,39.74A3.6,3.6,0,0,1,14.74,37a3.84,3.84,0,0,1,3-.88,4.14,4.14,0,0,1,2.8,1.62,4.54,4.54,0,0,1,.89,3.13l-.11,1-.7-.63a.77.77,0,0,0-.7-.11.74.74,0,0,0-.19,1.24.88.88,0,0,0,.78.14l1.05-.41L21,43a2.9,2.9,0,0,1-2.37,1.38,2.69,2.69,0,0,1-2.3-1.16,2.7,2.7,0,0,0,2.26.71,2.51,2.51,0,0,0,1.76-1.29l.48.52A1.62,1.62,0,0,1,19.27,43a1.63,1.63,0,0,1,.35-2.83,1.73,1.73,0,0,1,1.66.25l-.81.34a3.69,3.69,0,0,0-.68-2.47,3.5,3.5,0,0,0-4.74-.9A3.64,3.64,0,0,0,13.49,39.74Z"/><path class="cls-7" d="M39,31.21c-1.88-1.26-4.4-1.89-6.42-.88a6.14,6.14,0,0,0-2.66,2.83,17.26,17.26,0,0,0-1.23,3.74,13,13,0,0,0,6.57,1.57,24.6,24.6,0,0,0,4-.53l3.18-.58C44.92,36.9,39.94,31.84,39,31.21Z"/><path class="cls-7" d="M57,31a7.22,7.22,0,0,1,5-2.28,2.54,2.54,0,0,1,2.11.74,3,3,0,0,1,.48,1.47,10.41,10.41,0,0,1,.18,2.67A3.68,3.68,0,0,1,63.66,36a4.71,4.71,0,0,1-2.77.94c-1.08.1-5.71.38-5.94-.78a6.26,6.26,0,0,1,.22-1.23,7,7,0,0,1,.33-1.42A7.21,7.21,0,0,1,57,31Z"/><path d="M40.54,32a9.83,9.83,0,0,0-2.19-1.8,7.07,7.07,0,0,0-2.76-.9,6.2,6.2,0,0,0-2.91.38,4.89,4.89,0,0,0-2.22,1.91c-.06.09-.1.19-.16.28-.29.25-.56.52-.84.79A6.36,6.36,0,0,1,27.66,34,2.36,2.36,0,0,1,25.48,34a9.88,9.88,0,0,0,1,1.29c.28.29,1.69,1.77,2.14,1.47,0,0,0,.06,0,.09a1,1,0,0,0,0-.1h0a.69.69,0,0,0,.13-.38,15.56,15.56,0,0,1,2.28-4.26A4.3,4.3,0,0,1,33,30.6a5.35,5.35,0,0,1,2.46-.27A7.81,7.81,0,0,1,40,32.6a11.87,11.87,0,0,1,3.21,4.24A9.49,9.49,0,0,0,40.54,32Z"/><path d="M67.21,28.71a3.2,3.2,0,0,1-1.4.54,3.46,3.46,0,0,1-1.32-.06.62.62,0,0,0-.3,0,2.52,2.52,0,0,0-1.68-1,6.64,6.64,0,0,0-3.89.93A7.43,7.43,0,0,0,55.84,32,6.71,6.71,0,0,0,55,35.73,8.8,8.8,0,0,1,59.12,30a8,8,0,0,1,1.62-.71,5.17,5.17,0,0,1,1.7-.3,2.09,2.09,0,0,1,1.74.93,8,8,0,0,1,.41,1.16.68.68,0,0,1,0,.14v0a5.13,5.13,0,0,1,.13.66c0,.11.13.64.06.71A10.54,10.54,0,0,0,67.21,28.71Z"/><path class="cls-4" d="M43.41,29.08a2.73,2.73,0,0,1-.65.3,2,2,0,0,0,1.05-1.07q-3-1.12-6.12-2.17c-2.15-.74-4.53-1.45-6.64-.63-.5.2-3.89,2.57-3.3,3.07.35.31,1.49-.84,1.82-1a7.66,7.66,0,0,1,7.6-.07c.75.42,1.43,1,2.17,1.4a5,5,0,0,0,2,.73,1.87,1.87,0,0,0,1.19.11A2.35,2.35,0,0,0,44,28.57,2.61,2.61,0,0,1,43.41,29.08Z"/><path class="cls-4" d="M63.69,23.17A2.87,2.87,0,0,0,62.21,22a3.28,3.28,0,0,0-1.7.1,27,27,0,0,0-3.28,1,7.45,7.45,0,0,0-1.89,1.16c-.3.2-.61.4-.89.62a.33.33,0,0,0-.11.13.28.28,0,0,0,0,.2,2.34,2.34,0,0,0,.26.43l.09.1a1.94,1.94,0,0,1-.48-.28c-.07.06.24.38.3.43a.91.91,0,0,0,.52.25s.08,0,.12,0c.62.14,1.66-.6,2.11-.82l2.85-1.36a3,3,0,0,1,2-.43c1.35.37,1.59,2.35,2.84,3A7.72,7.72,0,0,0,63.69,23.17Z"/><path class="cls-6" d="M42.48,33.92a24.7,24.7,0,0,0-3.13-3.25,8.39,8.39,0,0,0-3.75-2.08,5.21,5.21,0,0,0-4,1.12,12.66,12.66,0,0,0-2.9,3.38,9.83,9.83,0,0,1,2.53-3.83,5.45,5.45,0,0,1,4.47-1.4,7.87,7.87,0,0,1,4,2.39A14.6,14.6,0,0,1,42.48,33.92Z"/><path class="cls-6" d="M54.77,34.05a5.52,5.52,0,0,1,.84-3.73,9.1,9.1,0,0,1,2.72-2.77,16.16,16.16,0,0,1,1.65-1,3.8,3.8,0,0,1,2-.48,2.6,2.6,0,0,1,1.79,1,2.35,2.35,0,0,1,.39,1.89,2.25,2.25,0,0,0-2.2-2.29,7.11,7.11,0,0,0-3.19,1.52,11.47,11.47,0,0,0-2.67,2.48A6.73,6.73,0,0,0,54.77,34.05Z"/><path class="cls-6" d="M45.77,45.46c.24-.66,1.09-.82,1.72-.74a15.7,15.7,0,0,0,1.87.24,5.21,5.21,0,0,0,3.41-.78,3.2,3.2,0,0,0,1.09-1.28,1.74,1.74,0,0,0,0-1.54c-.27-.44-.84-.93-1.15-1.5A5.33,5.33,0,0,1,52.1,38a6.22,6.22,0,0,0,.95,1.62,5,5,0,0,0,.62.68,6.78,6.78,0,0,1,.71.71,2.27,2.27,0,0,1,.13,2.13,3.67,3.67,0,0,1-1.31,1.62,5.26,5.26,0,0,1-3.9.74,15.47,15.47,0,0,1-1.87-.45A1.46,1.46,0,0,0,45.77,45.46Z"/><path class="cls-6" d="M46.67,46.09a1.1,1.1,0,0,1-.51,0,.65.65,0,0,1-.44-.32.52.52,0,0,1,.09-.54,1.48,1.48,0,0,1,.43-.29l0,.06c-.12.12-.25.21-.35.31a.35.35,0,0,0,0,.39.66.66,0,0,0,.31.28A3.39,3.39,0,0,0,46.67,46.09Z"/><path class="cls-6" d="M37.32,49A.94.94,0,0,1,37.38,48a1,1,0,0,1,1-.38A1.38,1.38,0,0,0,37.32,49Z"/><path class="cls-8" d="M54.75,49.15l-3.16-.74a19.73,19.73,0,0,0-3.88-.62,22,22,0,0,0-4.57.54c-.76.13-1.51.26-2.28.32a11.45,11.45,0,0,1-1.17.05c-.26,0-.61-.1-.84,0a13.81,13.81,0,0,0,2.94.68,30.5,30.5,0,0,0,3.15.41,32.45,32.45,0,0,0,6.31-.1A31.53,31.53,0,0,0,54.75,49.15Z"/><path class="cls-6" d="M42.8,52.09a18.32,18.32,0,0,0,8.07,0,9,9,0,0,1-8.07,0Z"/><path class="cls-4" d="M53.48,8.05c-5.4-2.94-11.69-3.91-17.83-3.87a14.45,14.45,0,0,0-5.09.75,20.94,20.94,0,0,0-6.69,1.75l-.16,0a6.65,6.65,0,0,0-2.87,1.77,17,17,0,0,0-4.16,5c-1.61,3.31-1.16,7.21-.67,10.86a31.23,31.23,0,0,0,1.51,7,10.71,10.71,0,0,0,4,5.3,8.73,8.73,0,0,1,1.11,2.09A11.49,11.49,0,0,1,23,42.57c-.16,2.43-.86,4.79-1.24,7.2a11.92,11.92,0,0,0,.67,7.17,22,22,0,0,0,3.45,4.34,7.92,7.92,0,0,1,2.35,4.9c0,1.85-1.49,3.8-3.34,3.62a3.67,3.67,0,0,0,4.69-1.18,6,6,0,0,0,.61-5.11,16.64,16.64,0,0,0-2.52-4.67A19.61,19.61,0,0,1,25,54.22c-1.36-4,.06-8.28.48-12.46a25.89,25.89,0,0,0-1.25-10.84,44.16,44.16,0,0,1,4.33-8.15A23,23,0,0,1,37,15.18c.82-.42,2.52-.7,3.45-1.32,1.54,1.08,2.89-.37,4.69-.82a12.57,12.57,0,0,1,7.11.31c0-.13-.06-.25-.09-.37a4.94,4.94,0,0,0,.64.35c1.46.63,3,.88,4.48,1.6a16.2,16.2,0,0,1,4,2.86c1,1,2.85,2.84,3.13,4.35C63.29,16.1,58.87,11,53.48,8.05Z"/><path class="cls-4" d="M27.41,29.23c.34,2.67,1.6,5.29,1.09,7.93a6.22,6.22,0,0,1-4.14,4.67,6.63,6.63,0,0,0,3.18-5.78c-.09-3.2-2.48-6-2.72-9.15a7.16,7.16,0,0,1,2.85-6.14c.78-.57,2.42-1.19,1.65.4a19.64,19.64,0,0,0-1.63,3.66A11.92,11.92,0,0,0,27.41,29.23Z"/><path class="cls-4" d="M7.35,41.08a7.45,7.45,0,0,0-.48,5.65,22,22,0,0,0,2.29,5.34,20.68,20.68,0,0,1,2.26,5.55,9.15,9.15,0,0,1,.11,3.09,11.72,11.72,0,0,1-.86,2.94c-.81,1.86-1.9,3.5-2.62,5.27a7.91,7.91,0,0,0-.55,5.45c1.17,3.6,5.5,5.54,6.66,9.46-1.52-3.74-5.8-5.21-7.38-9.21a6.35,6.35,0,0,1-.36-3.08,11.85,11.85,0,0,1,.78-3C8,66.7,9,65,9.75,63.26a11,11,0,0,0,.84-2.69,8.66,8.66,0,0,0-.06-2.78,23.71,23.71,0,0,0-2-5.38A22.15,22.15,0,0,1,6.4,46.83,7.41,7.41,0,0,1,7.35,41.08Z"/><path class="cls-4" d="M62.85,18.57a20.61,20.61,0,0,1,7.56,6.57,20.35,20.35,0,0,1,3.51,9.47,20.65,20.65,0,0,1-1.43,10c-1.31,3.19-3.37,5.9-4.79,8.86a16,16,0,0,0-1.52,4.61,9,9,0,0,0,.48,4.7A30.65,30.65,0,0,0,69,67.19a14.78,14.78,0,0,1,2,4.7,9.7,9.7,0,0,1,.15,1.32,11.75,11.75,0,0,1-.11,1.32A9.71,9.71,0,0,1,70.19,77c-.76,1.54-1.76,2.89-2.4,4.4a5.51,5.51,0,0,0-.25,4.7,2.21,2.21,0,0,0,1.86,1.31,1.53,1.53,0,0,0,1.54-1.57,1.6,1.6,0,0,1-1.53,1.72,2.4,2.4,0,0,1-2.1-1.33,5.92,5.92,0,0,1,0-5c.63-1.6,1.61-3,2.29-4.48a6.82,6.82,0,0,0,.65-4.65c-.75-3.14-3.18-5.67-4.46-8.9A10,10,0,0,1,65.23,58a17,17,0,0,1,1.57-4.91c1.52-3.06,3.58-5.74,4.85-8.76a20.51,20.51,0,0,0-8.8-25.74Z"/><path class="cls-4" d="M16.58,16.46a106.29,106.29,0,0,0-5.92,9.23,95,95,0,0,0-4.92,9.77,25.13,25.13,0,0,0-1.65,5.13,12,12,0,0,0,.12,5.26c.92,3.45,3.23,6.35,5.38,9.29a31.48,31.48,0,0,1,2.95,4.73,14.46,14.46,0,0,1,1.58,5.41,9.16,9.16,0,0,1-.24,2.86,15.67,15.67,0,0,1-1,2.65c-.74,1.67-1.34,3.35-.86,5a26.93,26.93,0,0,0,2.29,4.89,9.4,9.4,0,0,1,.86,2.69A5.21,5.21,0,0,1,15,86.26a3.22,3.22,0,0,1-2.1,1.91,3.82,3.82,0,0,1-2.78-.34,3.11,3.11,0,0,1-1.66-2.19,1.33,1.33,0,0,1,.43-1.29c.39-.25,1.07-.1,1.12.4-.07-.49-.74-.58-1.08-.34a1.24,1.24,0,0,0-.32,1.21,2.92,2.92,0,0,0,1.63,2,3.58,3.58,0,0,0,2.55.21,2.8,2.8,0,0,0,1.76-1.73A6.6,6.6,0,0,0,13.8,81a26.27,26.27,0,0,1-2.47-5,6.05,6.05,0,0,1-.11-2.9,14.22,14.22,0,0,1,.91-2.67,10.1,10.1,0,0,0,1.08-5.12,13.5,13.5,0,0,0-1.53-5.05,31.25,31.25,0,0,0-2.89-4.56c-2.12-2.94-4.5-5.94-5.46-9.66a12.94,12.94,0,0,1-.09-5.64A24,24,0,0,1,5,35.15,90.43,90.43,0,0,1,16.58,16.46Z"/><path class="cls-4" d="M59.7,14.7a29,29,0,0,1,7.61,7.78,27.21,27.21,0,0,1,4.08,10.16,26.12,26.12,0,0,1-.35,11,27.65,27.65,0,0,1-1.91,5.2c-.79,1.65-1.65,3.25-2.37,4.89a16.1,16.1,0,0,0-1.46,5.06A14.33,14.33,0,0,0,65.88,64c.93,3.43,2.63,6.82,2.73,10.6a15.3,15.3,0,0,1-3.56,10.29A15,15,0,0,1,55.6,90a15.18,15.18,0,0,0,9.08-5.43,14.71,14.71,0,0,0,3.16-10C67.64,71.08,66,67.78,65,64.24a15.45,15.45,0,0,1-.66-5.55,17.24,17.24,0,0,1,1.51-5.37c1.53-3.36,3.46-6.42,4.31-9.91a26.67,26.67,0,0,0,.48-10.64A29,29,0,0,0,59.7,14.7Z"/><path class="cls-4" d="M18.72,2.92a12.87,12.87,0,0,0-8.08,3.5,20.57,20.57,0,0,0-4.71,24c1.5,3,3.84,6,3.41,9.29C9.55,38,11,35.94,11.67,34.42q1.26-2.81,2.54-5.59,2.58-5.56,5.25-11.09c1.61-3.31,3.88-6.69,5.12-10.14C25.75,4.36,21.33,2.89,18.72,2.92Z"/><path class="cls-1" d="M25.72,72.63c2.7-2.41,7-3.27,10-1.33,2.68,1.7,3.85,5,4.26,8.17s.24,6.39,1.1,9.44c.25.9-8,.77-8.68.65a18.26,18.26,0,0,1-8-3.53c-1.87-1.45-3.35-3-3-5.52A13.94,13.94,0,0,1,25.72,72.63Z"/><g class="cls-9"><path class="cls-6" d="M24.8,76.41a9.8,9.8,0,0,1,8.55-1C37.7,77.1,40,81.7,42,85.92c.3-3.67.6-7.43-.32-11s-3.33-7-6.84-8.08a10.28,10.28,0,0,0-7.26.68,13.23,13.23,0,0,0-6.17,6c-.87,1.68-2.84,6.74-1.1,8.34C21.89,80,22.52,77.86,24.8,76.41Z"/></g><path class="cls-3" d="M41.61,87.72a50,50,0,0,0,9.26,16.16A13.64,13.64,0,0,1,42.78,109c-.63-1.56,1.32-3.48.3-4.85a3,3,0,0,0-2.2-.87,20,20,0,0,0-7.76.91c-.09.8.55,1.47,1.09,2.1s1,1.49.58,2.18a2.35,2.35,0,0,1-2,.74,23.68,23.68,0,0,1-16.16-5.85c1.35.27,2.44-1.3,2.16-2.56a6,6,0,0,0-2.44-3c-.64-.51-1.49-1.05-2.26-.72s-.84,1.62-.62,2.54a10.86,10.86,0,0,1-6-3,29.51,29.51,0,0,1-4.11-5.15c.22.32,6.92-3.38,7.54-3.74a63.1,63.1,0,0,0,7.13-4.81c1-.75,1.85-1.82,3.21-1.44,1.14.31,2.2,1.44,3.2,2a25.87,25.87,0,0,0,15.83,3.45A1.21,1.21,0,0,1,41.61,87.72Z"/><path class="cls-3" d="M50.51,80.61a10,10,0,0,1,2.26,2.81L59.93,95c-1.12,1.94-3.8,2.51-5.93,1.84a12.92,12.92,0,0,1-5.36-3.92c-3.4-3.66-6.79-7.67-8.16-12.5-.4-1.42-1.06-2,.38-2.05A30,30,0,0,1,44,79C46.23,79.26,48.66,79.19,50.51,80.61Z"/><path class="cls-4" d="M31.83,35.46a3.7,3.7,0,0,0,1.77,1.47,6.31,6.31,0,0,0,4.83-.19,3.53,3.53,0,0,0,1.74-1.87,2.59,2.59,0,0,0-.32-2.48,3.94,3.94,0,0,0-1.33-1,8.34,8.34,0,0,0-3.46-1.15,4.18,4.18,0,0,0-2.79.77,3.1,3.1,0,0,0-.93,2.74A3.64,3.64,0,0,0,31.83,35.46Z"/><path class="cls-4" d="M56.69,35.32a3.32,3.32,0,0,0,2,1.09,2.81,2.81,0,0,0,2-.44,3,3,0,0,0,1.07-1.81A8.44,8.44,0,0,0,61.91,32a4.39,4.39,0,0,0-.24-1.49,1.55,1.55,0,0,0-1.07-1,2,2,0,0,0-1.41.39,9.82,9.82,0,0,0-2.69,2.31A2.06,2.06,0,0,0,56,33.74,2.93,2.93,0,0,0,56.69,35.32Z"/><path class="cls-10" d="M32,34a3.35,3.35,0,0,0,1.35,2,4.57,4.57,0,0,0,1.92.68A4.44,4.44,0,0,0,38,36.16a3.32,3.32,0,0,0,1.55-3.53,4.14,4.14,0,0,1-1.46,1.91,3.06,3.06,0,0,1-2.32.53,3.55,3.55,0,0,1-1.62-.89,5.31,5.31,0,0,1-1-1.31,5.5,5.5,0,0,1-.39-.81c0-.13-.13-.7-.23-.77s-.35.6-.41.77A3.61,3.61,0,0,0,32,34Z"/><path class="cls-10" d="M57.57,35.37a2.83,2.83,0,0,0,2.29.48,2.48,2.48,0,0,0,1.56-2.24,6.73,6.73,0,0,0-.6-2.81A2.73,2.73,0,0,1,57,34c-.35-.18-.51-.22-.36.25A2.22,2.22,0,0,0,57.57,35.37Z"/><circle class="cls-11" cx="35.84" cy="33.57" r="1.61"/><circle class="cls-11" cx="58.99" cy="32.86" r="1.61"/><path class="cls-12" d="M36.63,31.74a.93.93,0,0,1,.29-.46,1,1,0,0,1,.9-.05,4.16,4.16,0,0,1,1.29.62,1,1,0,0,1,.53.72,1.21,1.21,0,0,1-.34.74,1.58,1.58,0,0,1-.6.52,1.56,1.56,0,0,1-1-.07c-.33-.11-1.21-.25-1.38-.58S36.51,32.06,36.63,31.74Z"/><path class="cls-12" d="M59.52,30.49a1.07,1.07,0,0,1,.89-.67,1.1,1.1,0,0,1,.76.35,1.75,1.75,0,0,1,.52,1.12.86.86,0,0,1-.11.53,1.06,1.06,0,0,1-.75.38,1.61,1.61,0,0,0-.81.28c-.24-.26-.63-.53-.71-.88A1.85,1.85,0,0,1,59.52,30.49Z"/><path class="cls-13" d="M38.63,34.33a.36.36,0,0,1,.29.39.35.35,0,1,1-.35-.39"/><path class="cls-13" d="M61.31,32.86a.37.37,0,0,1,.29.39.35.35,0,0,1-.37.3.36.36,0,0,1-.33-.35.37.37,0,0,1,.34-.34"/><path class="cls-14" d="M40.46,13.56a3.58,3.58,0,0,1-.28-2.31A5.19,5.19,0,0,1,41.1,9a3.61,3.61,0,0,1,2.26-1.13,10.75,10.75,0,0,1,2.4-.13,9.84,9.84,0,0,1,4.51,1.51A5.46,5.46,0,0,1,52,10.9a2.15,2.15,0,0,1,.07,2.3,2,2,0,0,0-.47-2,5.72,5.72,0,0,0-1.75-1.26,11.07,11.07,0,0,0-4.19-1.19,9.93,9.93,0,0,0-2.18.06,3,3,0,0,0-1.83.71,5.36,5.36,0,0,0-1,1.87A3.8,3.8,0,0,0,40.46,13.56Z"/><path class="cls-14" d="M47.39,8.54a2,2,0,0,0-1.17-2A5.76,5.76,0,0,0,43.8,6a18.8,18.8,0,0,0-5.06.72c-.4.1-.9.19-1.2.3s-.33.21-.35.56a5.52,5.52,0,0,0,.25,1.19l.31,1.27a6.27,6.27,0,0,0,.79,2.35,1.22,1.22,0,0,0,1,.5.89.89,0,0,0,.81-.79,1,1,0,0,1-.76,1,1.57,1.57,0,0,1-1.38-.42,3.25,3.25,0,0,1-.76-1.21c-.17-.42-.29-.84-.43-1.26L36.59,9a6.53,6.53,0,0,1-.34-1.37,1.51,1.51,0,0,1,.18-.9,1.48,1.48,0,0,1,.74-.61c.52-.19.89-.25,1.34-.38a15.44,15.44,0,0,1,5.35-.52,5.81,5.81,0,0,1,2.61.86A2.15,2.15,0,0,1,47.39,8.54Z"/><path class="cls-4" d="M33.18,5.33a1.28,1.28,0,0,0-.81-1.21A2.74,2.74,0,0,0,30.84,4,6.65,6.65,0,0,0,27.16,6,6.36,6.36,0,0,0,30.89,8.3a1.47,1.47,0,0,0,.95,0,.85.85,0,0,0,.48-.63.86.86,0,0,0-.24-.75"/><path class="cls-14" d="M33.18,5.33a1.26,1.26,0,0,0-1.13-1.07,3.87,3.87,0,0,0-1.66.25,7.07,7.07,0,0,0-2.87,1.78l0-.65a6.66,6.66,0,0,0,2.56,2,3.73,3.73,0,0,0,1.53.41.75.75,0,0,0,.43-1.2.9.9,0,0,1,.36.85,1,1,0,0,1-.66.81,2,2,0,0,1-1,.06,5.59,5.59,0,0,1-.92-.21,6.32,6.32,0,0,1-3.09-2.15l-.26-.34.3-.31a6.43,6.43,0,0,1,3.4-1.85,3.88,3.88,0,0,1,2,0A1.4,1.4,0,0,1,33.18,5.33Z"/><path class="cls-14" d="M40.17,6.06a3.68,3.68,0,0,0-3.55-1.27,13.55,13.55,0,0,0-3.72,1.4c-.26.15-.35.26-.35.4a1.76,1.76,0,0,0,.23.75A6.4,6.4,0,0,0,33.9,8.92a5,5,0,0,0,1.57,1.13,1.35,1.35,0,0,0,1.7-.49,1.52,1.52,0,0,1-1.83,1,4.61,4.61,0,0,1-2-1,6.11,6.11,0,0,1-1.43-1.72,2.45,2.45,0,0,1-.37-1.23,1.35,1.35,0,0,1,.29-.77,1.94,1.94,0,0,1,.54-.44,17.08,17.08,0,0,1,2-.86A6.82,6.82,0,0,1,36.55,4a4.31,4.31,0,0,1,2.18.46A3,3,0,0,1,40.17,6.06Z"/><path class="cls-14" d="M20.41,35.2a7.72,7.72,0,0,1,2.57,4A12.39,12.39,0,0,1,23.33,44c-.37,3.23-1.58,6.24-2.16,9.33A15.72,15.72,0,0,0,20.92,58a5.69,5.69,0,0,0,1.85,3.9,3.12,3.12,0,0,0,4.78-3.74l.95-.28a4.79,4.79,0,0,1-.28,2.71A3,3,0,0,1,26,62.35a2.37,2.37,0,0,1-1.5-.24,2.94,2.94,0,0,1-1.07-1,4.77,4.77,0,0,1-.64-2.63,55.66,55.66,0,0,1,1.44-9.87,38.29,38.29,0,0,0,1-9.76,32.38,32.38,0,0,0-1.87-9.66,30.65,30.65,0,0,1,2.37,9.63A38.93,38.93,0,0,1,25,48.75a62.52,62.52,0,0,0-1.28,9.73,3.74,3.74,0,0,0,.51,2.11,1.59,1.59,0,0,0,1.62.81,2.08,2.08,0,0,0,1.47-1.24A4,4,0,0,0,27.51,58L27,54.37l1.47,3.35a4.16,4.16,0,0,1-1.23,4.9,4.11,4.11,0,0,1-5,0,6.53,6.53,0,0,1-2.14-4.51,15,15,0,0,1,.36-4.88c.7-3.17,2-6.11,2.42-9.24a11.89,11.89,0,0,0-.13-4.68A7.8,7.8,0,0,0,20.41,35.2Z"/><path class="cls-14" d="M10.54,19.48a23.76,23.76,0,0,1,5.53-8.29,24.72,24.72,0,0,1,8.44-5.47l.28,1A19.48,19.48,0,0,0,20.1,8.2a23.71,23.71,0,0,0-4.23,2.56,21,21,0,0,0-3.59,3.46,22.37,22.37,0,0,0-2.77,4.19,19.94,19.94,0,0,1,2.38-4.49,21.45,21.45,0,0,1,3.49-3.76A20.43,20.43,0,0,1,24.6,5.7l.27,1a27,27,0,0,0-8.28,5.09A28.25,28.25,0,0,0,10.54,19.48Z"/><path class="cls-14" d="M24.49,6.11a29,29,0,0,0-7.2,2.55,29.26,29.26,0,0,0-6.23,4.43,14.35,14.35,0,0,1,5.77-5.31A14.34,14.34,0,0,1,24.49,6.11Z"/><path class="cls-14" d="M6.5,12.25a18.33,18.33,0,0,1,3-4.75A14.68,14.68,0,0,1,14.05,4a12.21,12.21,0,0,1,5.61-1.28,10,10,0,0,1,2.9.46A4.23,4.23,0,0,1,24,4a1.56,1.56,0,0,1,.51.83,6.81,6.81,0,0,1,.11.75l.24,1.71-1.1-1.35a2.15,2.15,0,0,0-1.07-.77,6.1,6.1,0,0,0-1.46-.29,9.7,9.7,0,0,0-3.05.37,15,15,0,0,0-5.49,3A21.31,21.31,0,0,0,8.47,13a45.07,45.07,0,0,0-3.09,5.68A36.29,36.29,0,0,1,8,12.75a21.5,21.5,0,0,1,4.08-5.14,14.94,14.94,0,0,1,5.76-3.27,10.19,10.19,0,0,1,3.36-.46A7.68,7.68,0,0,1,23,4.19,3.06,3.06,0,0,1,24.46,5.3l-.86.37A4.79,4.79,0,0,0,23.52,5a.55.55,0,0,0-.2-.35,3.6,3.6,0,0,0-1.06-.59,9.47,9.47,0,0,0-2.62-.45,12.72,12.72,0,0,0-5.29,1A14.84,14.84,0,0,0,9.85,7.8,20.29,20.29,0,0,0,6.5,12.25Z"/><path class="cls-14" d="M24.43,6.07a8.74,8.74,0,0,0-3.52-.44,10.78,10.78,0,0,0-3.36.84,26,26,0,0,0-5.93,4,12.71,12.71,0,0,1,5.54-4.91,8.74,8.74,0,0,1,3.74-.7A6.14,6.14,0,0,1,24.43,6.07Z"/><path class="cls-14" d="M62.88,17.68c2,2.21,4.25,4.2,6.11,6.61a19.6,19.6,0,0,1,3.71,8.29,21.33,21.33,0,0,1-.2,9.07,22.75,22.75,0,0,1-3.73,8.19,30.18,30.18,0,0,0,1.81-4.08,24.56,24.56,0,0,0,1.17-4.27,23.25,23.25,0,0,0,0-8.72,21.07,21.07,0,0,0-3.35-8C66.7,22.31,64.58,20.15,62.88,17.68Z"/><path class="cls-14" d="M12,22.05A20.51,20.51,0,0,0,8.8,28.58c-.73,2.31-1.23,4.7-1.85,7.08a73.08,73.08,0,0,1-2.3,7c-.75,2.26-1.25,4.68-.55,6.9s2.19,4.14,3.71,6a33.54,33.54,0,0,1,2.2,3,10,10,0,0,1,1.42,3.51,8.75,8.75,0,0,1-.18,3.78,36.14,36.14,0,0,1-1.13,3.52,15.8,15.8,0,0,0-.9,3.5,6.7,6.7,0,0,0,.48,3.56A6.42,6.42,0,0,1,9,72.86a15.44,15.44,0,0,1,.7-3.63c.7-2.32,1.56-4.7,1-7S8.64,58,7.1,56.15s-3.21-3.83-4-6.34a12.24,12.24,0,0,1,.65-7.46c.4-1.18.86-2.31,1.28-3.45s.8-2.28,1.14-3.45c.7-2.33,1.3-4.71,2.13-7A19.39,19.39,0,0,1,12,22.05Z"/><path class="cls-14" d="M41.71,9.06a4.33,4.33,0,0,1,4,0,3.23,3.23,0,0,1,1.47,1.56,2.32,2.32,0,0,1,0,2,3.47,3.47,0,0,0-1.91-2.72A9.73,9.73,0,0,0,41.71,9.06Z"/><path class="cls-14" d="M37,7.07a15.92,15.92,0,0,0,2.38,1,17.36,17.36,0,0,0,2.52.53A3.05,3.05,0,0,1,39.06,9,3.09,3.09,0,0,1,37,7.07Z"/><path class="cls-14" d="M32.17,6.53a3.24,3.24,0,0,1,5.26.11,11.93,11.93,0,0,0-2.62-.4A11.63,11.63,0,0,0,32.17,6.53Z"/><path class="cls-14" d="M27.46,5.72a10.67,10.67,0,0,0,2.36.43A10.85,10.85,0,0,0,32.2,6a2.8,2.8,0,0,1-4.74-.24Z"/><path class="cls-15" d="M6.75,31.65a22.21,22.21,0,0,1,2-12A59,59,0,0,0,7.41,25.6,58,58,0,0,0,6.75,31.65Z"/><path class="cls-15" d="M9.2,16.84a27.11,27.11,0,0,0-2.78,6.23,14.23,14.23,0,0,0-.07,6.71l.47,2.07-.93-1.92a8.41,8.41,0,0,1-1-3.86,24.36,24.36,0,0,1,.54-3.91,27.14,27.14,0,0,1,2.84-7.3,32,32,0,0,0-2.48,7.37,28,28,0,0,0-.44,3.85,8.52,8.52,0,0,0,1,3.65l-.46.15A13.94,13.94,0,0,1,6.07,23,22.91,22.91,0,0,1,9.2,16.84Z"/><path class="cls-15" d="M19,13.53c1-.41,1.81-1,2.75-1.49a4.38,4.38,0,0,0-1.23,1.64,1.52,1.52,0,0,0,.55,1.82,1.82,1.82,0,0,0,1.24.08,9.56,9.56,0,0,0,3.89-2.45,7.74,7.74,0,0,1,4-2.2,13.39,13.39,0,0,0-4.52,3.77A2.18,2.18,0,0,0,25,16.56a1.61,1.61,0,0,0,1.62,1,4.14,4.14,0,0,0,1.92-.72,6.61,6.61,0,0,1,1.84-.92,6.94,6.94,0,0,0-2.22,2.57,2.44,2.44,0,0,0,.81,3,1.76,1.76,0,0,0-.73.84,3.12,3.12,0,0,0-3.32.11A9.19,9.19,0,0,0,22.54,25a7,7,0,0,0,.74-3.18,2.49,2.49,0,0,0-2-2.33,3.48,3.48,0,0,0-2.47,1.1A12.6,12.6,0,0,0,14.48,27a11.14,11.14,0,0,1,1.71-4.8A9.34,9.34,0,0,0,17.89,19a1.67,1.67,0,0,0-.67-1.79,1.91,1.91,0,0,0-1.62.17,6.82,6.82,0,0,0-2.8,2.47,22.6,22.6,0,0,0,1-2.53,21.21,21.21,0,0,1,1.32-2.38c.37-.59.61-1.09,1.35-1.08A5.61,5.61,0,0,0,19,13.53Z"/><path class="cls-15" d="M9.75,51.16C11.58,54,13.54,57,13.8,60.37a15.16,15.16,0,0,0-1-7.65,4.41,4.41,0,0,1-.51-1.89c.05-.66.59-1.34,1.24-1.25s.85.53,1.12,1c.73,1.13,1.41,2.3,2.05,3.48l-.56-4.12a1.73,1.73,0,0,1,.08-1.06c.38-.72,1.56-.51,2,.17a3.43,3.43,0,0,1,.24,2.35c.53-1.3-.28-2.8-1.36-3.71s-2.42-1.45-3.5-2.36a6.72,6.72,0,0,1-1.08-9.16,10.52,10.52,0,0,1-1.82-4.72L9.57,36.63c-.08.42-.23.91-.63,1s-.94-.27-1-.74a2.58,2.58,0,0,1,.28-1.4C4.5,40.66,6.71,46.43,9.75,51.16Z"/><path class="cls-15" d="M66.32,52.41a15.37,15.37,0,0,0-1.94,4.67,15.15,15.15,0,0,0-.36,5c.22,3.34,2.24,6.25,2.74,9.82a13.88,13.88,0,0,1-2.93,9.9,21.88,21.88,0,0,1-3.59,3.73A35.78,35.78,0,0,1,56,88.41a45.83,45.83,0,0,0,3.91-3.28,21.64,21.64,0,0,0,3.3-3.8A13.87,13.87,0,0,0,65.77,72a22.05,22.05,0,0,0-1.37-4.8,17,17,0,0,1-1.14-5.09A15.48,15.48,0,0,1,63.91,57,14.16,14.16,0,0,1,66.32,52.41Z"/><path class="cls-15" d="M62.66,17.58A27.63,27.63,0,0,1,68.77,23a12.53,12.53,0,0,1,2,3.65,10.51,10.51,0,0,1,.53,4.19c-.2,2.79-1.09,5.38-1,8a13.38,13.38,0,0,0,.84,3.86,7.2,7.2,0,0,1,.32,4,7.47,7.47,0,0,0-.79-3.88,13.59,13.59,0,0,1-1.13-4c-.24-2.83.66-5.49.8-8.1a11.09,11.09,0,0,0-2.17-7.33A39,39,0,0,0,62.66,17.58Z"/><path class="cls-15" d="M23.18,31.17A21.24,21.24,0,0,1,24.78,36a23.43,23.43,0,0,1,.4,5.09,22.29,22.29,0,0,1-.77,5.07c-.43,1.65-1,3.24-1.52,4.84a37.08,37.08,0,0,0-1.34,4.79,7.9,7.9,0,0,0,.15,4.7,3.82,3.82,0,0,0,1.47,1.73,2.86,2.86,0,0,0,2.22.31,3.28,3.28,0,0,0,1.93-1.32,4.22,4.22,0,0,0,.75-2.33A3.87,3.87,0,0,1,25.53,63a3.42,3.42,0,0,1-2.67-.23,4.47,4.47,0,0,1-1.85-2,8.28,8.28,0,0,1-.39-5.21,35.8,35.8,0,0,1,1.32-4.93A38.77,38.77,0,0,0,24.41,41a22.34,22.34,0,0,0-.12-5A23.7,23.7,0,0,0,23.18,31.17Z"/><path class="cls-15" d="M47.49,6a2.29,2.29,0,0,1,1,.7.87.87,0,0,1-.05,1.11,2.72,2.72,0,0,1,2.25.11,1.3,1.3,0,0,1,.57.49.67.67,0,0,1,0,.72.45.45,0,0,1-.66.05,7.38,7.38,0,0,1,2.93,2.13,1.66,1.66,0,0,1,.46,1c0,.36-.28.75-.64.71a12.9,12.9,0,0,1,6.43,2.71,22.63,22.63,0,0,0-4-6.09,15.67,15.67,0,0,0-4.12-2.74A21.56,21.56,0,0,0,44,4.75a9.7,9.7,0,0,0-2.22,0,19.4,19.4,0,0,0,2.75.34A13.12,13.12,0,0,1,47.49,6Z"/><path class="cls-15" d="M23.19,74.21l-.9-2.39a2.41,2.41,0,0,1,.05,1.59,1.59,1.59,0,0,1-1.15,1,1.54,1.54,0,0,1-.82-.15l-.1,0a15.67,15.67,0,0,0-1.56-4.41,7.67,7.67,0,0,1-.43,7.48,2.15,2.15,0,0,1-1.72,1.17,1.74,1.74,0,0,1-1.43-1.37,7.17,7.17,0,0,1,0-2.12,12.8,12.8,0,0,0-.73-5,25.51,25.51,0,0,1-.58,6.52,1.26,1.26,0,0,1-.47.87.85.85,0,0,1-.93-.16,2,2,0,0,1-.5-.85,6.78,6.78,0,0,1,0-4.36,21,21,0,0,0-1.12,3.27,6.83,6.83,0,0,0,.06,3.42,13.12,13.12,0,0,0,1.78,3.1A8,8,0,0,1,13.7,84c.26.89.21,1.33,1.12.62L19,81.34a3.49,3.49,0,0,1,.92-.56,1.1,1.1,0,0,1,1,.13,1.62,1.62,0,0,1,0-.22l.11.29A14.83,14.83,0,0,1,23,75.41a1.33,1.33,0,0,0,.31-.68A1.35,1.35,0,0,0,23.19,74.21Z"/><path class="cls-14" d="M48.59,64.18a4.72,4.72,0,0,1,1.14,2.76,7.47,7.47,0,0,1,2.56-4.82,2.64,2.64,0,0,1,2-.77A2.42,2.42,0,0,1,56,63.76c.05,1.07-.26,2.12-.21,3.18a12.89,12.89,0,0,1,1.76-4.7c.27-.43.66-.9,1.17-.87s.92.7,1.09,1.27a16.24,16.24,0,0,1,.66,3.91,16.49,16.49,0,0,1,1.24-5.26c.51,2.12,1,4.23,1.47,6.36A25.86,25.86,0,0,1,64,73.71a10.31,10.31,0,0,1-1.77,5.77,7.72,7.72,0,0,0,.51-4.22A2,2,0,0,0,62,73.89a1.49,1.49,0,0,0-1.65.12,3.55,3.55,0,0,0-1,1.4A13.19,13.19,0,0,0,58,79.89a14.19,14.19,0,0,0-1.53-5.8c-.36-.6-.94-1.21-1.64-1.15a2,2,0,0,0-1.39,1.2,10.06,10.06,0,0,0-1.19,3.74,4.44,4.44,0,0,1-.6-2.72,3.28,3.28,0,0,0-.89-2.59A1.74,1.74,0,0,0,48,74.43c-.62-2.49-1.11-5-1.57-7.52-.14-.76-.86-2.72-.25-3.21S48.09,63.69,48.59,64.18Z"/><path class="cls-16" d="M13.59,96.91l7.5-7.65a27.18,27.18,0,0,1-3.39,4.18A26.77,26.77,0,0,1,13.59,96.91Z"/><path class="cls-16" d="M18.75,102.3c.6-1.43,1.25-2.82,1.86-4.23s1.22-2.82,1.87-4.23a20.23,20.23,0,0,1-1.41,4.43A20.67,20.67,0,0,1,18.75,102.3Z"/><path class="cls-16" d="M5.7,94.08a17.54,17.54,0,0,0,7.21,5A1.51,1.51,0,0,1,13,97.55a5,5,0,0,1,1.16-1.12,28.54,28.54,0,0,0,2.47-2.2c.39-.39,2-1.74,1.82-2.31-.74.39-1.4,1-2.15,1.36a14.06,14.06,0,0,1-7.72,1.45A13.26,13.26,0,0,1,5.7,94.08Z"/><path class="cls-16" d="M28.32,105.51c.3-.4.69-.73,1-1.11a6.59,6.59,0,0,0,1.43-3.4,20.31,20.31,0,0,0,.08-3.74,7.74,7.74,0,0,1-2,4.91c-.77.87-1.73,1.55-2.53,2.38a4.39,4.39,0,0,0-1.43,3.07,7.18,7.18,0,0,0,3.38.43c.28-.3-.31-.74-.4-1A1.74,1.74,0,0,1,28.32,105.51Z"/><path class="cls-16" d="M31.82,104.39a3.9,3.9,0,0,1,1.6.14,1.47,1.47,0,0,1,1,1.18c.06.71-.57,1.28-1.14,1.73a1.24,1.24,0,0,0,1.37-.48,2.14,2.14,0,0,0,.33-1.48,9,9,0,0,0-.35-1.52,16.51,16.51,0,0,1-.41-5.82c-.54,1.48-.23,3.22-1,4.58a3.16,3.16,0,0,1-1.68,1.35c-.17.06-.89.11-.88.3S31.67,104.41,31.82,104.39Z"/><path class="cls-16" d="M49.76,99.07a4.48,4.48,0,0,0-1.35-1,10.59,10.59,0,0,1-4.09-6c-.73-2.35-1-4.82-1.56-7.21A18,18,0,0,0,41.44,81a5.22,5.22,0,0,0-.35-.93,11.39,11.39,0,0,0-1.37-2.2l.15,1.1c.05.33.09.66.14,1l0,.24c0,.36.1.73.11.91.2,3.22.45,6.44.83,9.65.22,1.8.48,3.59.81,5.37a10.1,10.1,0,0,0,1.43,4.09,1.47,1.47,0,0,1,.1.13A15.4,15.4,0,0,0,45,103a4.32,4.32,0,0,1,.78,1.34l-.06.05a8.29,8.29,0,0,1-2.74,1l-7.51,1.88c-2.77.69-5.63,1.39-8.45,1a25.2,25.2,0,0,0,8,6.11,2,2,0,0,1,.18-2.17A4.88,4.88,0,0,1,37,110.86c2.44-1.34,5.14-2.16,7.58-3.49s4.73-3.34,5.43-6A2.77,2.77,0,0,0,49.76,99.07Z"/><path class="cls-16" d="M64.57,105.41a9.66,9.66,0,0,1-3.11,3.76c-4.42,3.49-10.05,5.12-15.63,5.89a32.37,32.37,0,0,0,12.59.56c1.18-.18,2.34-.55,3.51-.71,0,.71.47,0,.6-.19.2-.39.38-.78.54-1.18a17.41,17.41,0,0,0,.79-2.64A44.08,44.08,0,0,0,64.57,105.41Z"/></g></g></svg>