<svg xmlns="http://www.w3.org/2000/svg" viewBox="0 0 123.49 49.04"><defs><style>.cls-1,.cls-2{fill:#a53860;}.cls-2{font-size:3px;}.cls-2,.cls-3{font-family:Poppins-Regular, Poppins;}.cls-3{font-size:4px;fill:#fff;}</style></defs><title>Recurso 14TARJETA DE PRESENTACIÓN</title><g id="Capa_2" data-name="Capa 2"><g id="Capa_2-2" data-name="Capa 2"><path class="cls-1" d="M61.79,12.61a2,2,0,0,1-.07-.35,1.89,1.89,0,0,1,0-.31v-.6a4.65,4.65,0,0,1-.7.28l-.31.08V12a1.78,1.78,0,0,1,0,.31,2,2,0,0,1-.08.35.69.69,0,0,1-.15.28.3.3,0,0,1-.25.12v.18h2V13a.32.32,0,0,1-.25-.12A.84.84,0,0,1,61.79,12.61Z"/><path class="cls-1" d="M61.36,9.9a1.5,1.5,0,0,0,.23-.2.35.35,0,0,0,.1-.26V7.36a.16.16,0,0,0,0-.1,3,3,0,0,0-.79-.45.13.13,0,0,0-.17.13V10.1a.09.09,0,0,0,.12.09A2.7,2.7,0,0,0,61.36,9.9Z"/><path class="cls-1" d="M67.41,12.89a.85.85,0,0,1-.16-.28c0-.11,0-.23-.07-.35a1.89,1.89,0,0,1,0-.31V5.34A3.54,3.54,0,0,0,66.37,3a3,3,0,0,0-2.46-.91,2.28,2.28,0,0,0-1.07.31A5,5,0,0,0,62,3a.17.17,0,0,1-.27-.14V2h-.06a1.86,1.86,0,0,1-.1.25,1.11,1.11,0,0,1-.66.56,1,1,0,0,1-.3,0l-.15,0h0a.56.56,0,0,1,.15.26,1.78,1.78,0,0,1,.1.63V4a.35.35,0,0,0,.25.34c.22.06.43.12.64.2l.12,0V4.15a1.49,1.49,0,0,1,.46-1.08,4.81,4.81,0,0,1,.56-.42,3.5,3.5,0,0,1,.65-.3,2.09,2.09,0,0,1,.69-.12,2,2,0,0,1,1,.25,1.61,1.61,0,0,1,.64.72,3.9,3.9,0,0,1,.34,1.15,11.59,11.59,0,0,1,.1,1.54V12a1.89,1.89,0,0,1,0,.31,2,2,0,0,1-.07.35,1.06,1.06,0,0,1-.15.28.32.32,0,0,1-.26.12v.18h2V13A.3.3,0,0,1,67.41,12.89Z"/><path class="cls-1" d="M62.59,5.86a4.18,4.18,0,0,0-1.2-.69A9.38,9.38,0,0,0,60,4.79a11.79,11.79,0,0,1-1.42-.35,4,4,0,0,1-1.17-.57,1.77,1.77,0,0,1-.68-1.05,2.1,2.1,0,0,1,.13-1.63A2,2,0,0,1,58,.33a2.17,2.17,0,0,1,.64-.1,1.24,1.24,0,0,1,.59.16,2.19,2.19,0,0,1,.25.2,1.12,1.12,0,0,1,.22.65,1.22,1.22,0,0,0,0,.51h0a.81.81,0,0,0,.77.68.83.83,0,0,0,.79-.86.83.83,0,0,0-.06-.32h0S61.08.62,59.88.19h0A2.47,2.47,0,0,0,59,0a3.19,3.19,0,0,0-1.11.15,3.11,3.11,0,0,0-1,.54,2.64,2.64,0,0,0-.7.8,2.39,2.39,0,0,0-.33,1,2.52,2.52,0,0,0,.06,1,2.23,2.23,0,0,0,.72,1.23,4,4,0,0,0,1.2.67,10.31,10.31,0,0,0,1.43.38,11.08,11.08,0,0,1,1.43.35,4.19,4.19,0,0,1,1.18.58,1.87,1.87,0,0,1,.68,1.07,2.75,2.75,0,0,1,.08,1.09,2.2,2.2,0,0,1-.32.9,2.3,2.3,0,0,1-.64.68,3.06,3.06,0,0,1-.89.43A1.91,1.91,0,0,1,59,10.6a2.45,2.45,0,0,1-.42-.43.9.9,0,0,1-.15-.62,2.58,2.58,0,0,0,.06-.62.79.79,0,1,0-1.58,0,1,1,0,0,0,.1.41,2.38,2.38,0,0,0,.39.65,3,3,0,0,0,.87.74,3.57,3.57,0,0,0,1.19.42A3.11,3.11,0,0,0,60.84,11a4.07,4.07,0,0,0,1.1-.52,3.48,3.48,0,0,0,.91-.84,3,3,0,0,0,.47-2.55A2.32,2.32,0,0,0,62.59,5.86Z"/><text class="cls-2" transform="translate(44.26 18.14)">Tarjeta de presentación</text><rect class="cls-1" y="28.61" width="123.49" height="20.42"/><text class="cls-3" transform="translate(28.09 34.07)">Correo: dsgnnieves@gmail.com<tspan x="-2.79" y="10">Número telefónico: 722-686-06-75</tspan></text></g></g></svg>